<svg width="139" height="24" viewBox="0 0 139 24" fill="none" xmlns="http://www.w3.org/2000/svg">
<path d="M40.2962 12.832C40.315 11.9098 41.1243 11.684 41.7454 11.6275H52.5298V13.9425H40.2962V19.1747H38V9.50072C38 7.58097 39.5621 6 41.4819 6H52.9251V8.31499H41.4819C40.8232 8.31499 40.2962 8.84198 40.2962 9.50072V12.832Z" fill="#94A3B8"/>
<path d="M69.2468 12.5874C69.2844 12.625 69.322 12.6627 69.3597 12.7191C69.8679 13.2837 70.1314 14.0178 70.1314 14.8835V19.1747H67.8164V14.8835C67.8164 14.7518 67.7975 14.1307 67.3647 14.1307H57.4836V19.1747H55.1874V6H66.066C68.3057 6 70.1314 7.82564 70.1314 10.0653C70.1314 11.0252 69.7926 11.891 69.2468 12.5874ZM66.1413 11.8157C67.0823 11.7781 67.8164 11.0064 67.8164 10.0653C67.8164 9.10547 67.0447 8.31499 66.066 8.31499H57.4836V13.0203C57.5024 12.098 58.3306 11.8722 58.9516 11.8157C58.9516 11.8157 66.1225 11.8157 66.1413 11.8157Z" fill="#94A3B8"/>
<path d="M83.9532 6C86.08 6 87.8115 7.75036 87.8115 9.87714V19.1747H85.5154V14.7518H75.1073V19.1747H72.8111V9.87714C72.8111 7.75036 74.5427 6 76.6695 6H83.9532ZM85.5154 12.4556V9.87714C85.5154 9.01137 84.819 8.31499 83.9532 8.31499H76.6695C75.8037 8.31499 75.1073 9.01137 75.1073 9.87714V13.6413C75.1073 13.6225 75.1073 13.6037 75.1073 13.5849C75.1638 12.8132 75.8978 12.4933 76.5942 12.4556C77.0835 12.4368 85.346 12.4556 85.5154 12.4556Z" fill="#94A3B8"/>
<path d="M101.936 6.07528H104.232V17.3867C104.232 18.1396 103.78 18.7983 103.065 19.0618C102.839 19.1559 102.632 19.1747 102.425 19.1747C101.898 19.1747 101.409 18.9677 101.051 18.5536L92.8829 9.16194V19.1559H90.5867V7.788C90.5867 7.03516 91.0384 6.37642 91.7536 6.13175C92.45 5.86825 93.2405 6.05646 93.7299 6.62109L101.936 16.0693V6.07528Z" fill="#94A3B8"/>
<path d="M109.292 16.8974V18.0831C109.329 17.1797 110.139 16.935 110.76 16.8974H121.808V19.1747H110.496C108.577 19.1747 107.014 17.6314 107.014 15.7117V9.48189C107.014 7.56215 108.577 6 110.496 6H121.808V8.29617H110.496C109.838 8.29617 109.311 8.82316 109.311 9.48189V15.674L109.292 16.8974Z" fill="#94A3B8"/>
<path d="M135.109 6C137.029 6 138.591 7.58097 138.591 9.50072V15.6928C138.591 17.6126 137.029 19.1747 135.109 19.1747H127.185C125.266 19.1747 123.703 17.6126 123.703 15.6928V9.50072C123.703 7.58097 125.266 6 127.185 6H135.109ZM136.295 15.6928V9.50072C136.295 8.84198 135.768 8.31499 135.109 8.31499H127.185C126.527 8.31499 126 8.84198 126 9.50072V18.0831C126.018 17.1609 126.847 16.935 127.468 16.8786H135.109C135.768 16.8786 136.295 16.3516 136.295 15.6928Z" fill="#94A3B8"/>
<path d="M11.6883 0.935065C11.6883 0.418643 11.2682 -0.00389639 10.7534 0.0368474C5.04367 0.488731 0.488731 5.04367 0.0368474 10.7534C-0.00389637 11.2682 0.418642 11.6883 0.935064 11.6883H10.7532C11.2697 11.6883 11.6883 11.2697 11.6883 10.7532V0.935065Z" fill="#475569"/>
<path d="M11.6883 13.2467C11.6883 12.7303 11.2682 12.3078 10.7534 12.3485C5.04367 12.8004 0.488731 17.3553 0.0368474 23.0651C-0.00389637 23.5799 0.418642 24 0.935064 24H10.7532C11.2697 24 11.6883 23.5813 11.6883 23.0649V13.2467Z" fill="#475569"/>
<path d="M24 0.935065C24 0.418643 23.5799 -0.00389639 23.0651 0.0368474C17.3553 0.488731 12.8004 5.04367 12.3485 10.7534C12.3078 11.2682 12.7303 11.6883 13.2467 11.6883H23.0649C23.5813 11.6883 24 11.2697 24 10.7532V0.935065Z" fill="#475569"/>
<path d="M24 13.2467C24 12.7303 23.5799 12.3078 23.0651 12.3485C17.3553 12.8004 12.8004 17.3553 12.3485 23.0651C12.3078 23.5799 12.7303 24 13.2467 24H23.0649C23.5813 24 24 23.5813 24 23.0649V13.2467Z" fill="#8B5CF6"/>
</svg>
